<?xml version='1.0' encoding='UTF-8'?>
<mxfile version="1.0" encoding="UTF-8"><diagram name="ArchiMate Model" id="archimate_diagram"><mxGraphModel dx="1050" dy="522" grid="1" gridSize="10"><root><mxCell id="0" /><mxCell id="1" parent="0" /><mxCell id="label_Motivation" value="Motivation" style="text;html=1;align=center;verticalAlign=middle;resizable=0;points=[];" vertex="1" parent="1"><mxGeometry x="513.0" y="38.0" width="200" height="30" as="geometry" /></mxCell><mxCell id="elem_m1" value="Reduce Carbon Footprint" style="html=1;outlineConnect=0;whiteSpace=wrap;fillColor=#CCCCFF;shape=mxgraph.archimate3.application;appType=goal;archiType=oct;" vertex="1" parent="1"><mxGeometry x="532.0" y="370.0" width="120" height="60" as="geometry" /></mxCell><mxCell id="elem_m2" value="Increase Renewable Energy Usage" style="html=1;outlineConnect=0;whiteSpace=wrap;fillColor=#CCCCFF;shape=mxgraph.archimate3.application;appType=goal;archiType=oct;" vertex="1" parent="1"><mxGeometry x="370.0" y="370.0" width="120" height="60" as="geometry" /></mxCell><mxCell id="elem_m3" value="Comply with Regulatory Emissions Standards" style="html=1;outlineConnect=0;whiteSpace=wrap;fillColor=#CCCCFF;shape=mxgraph.archimate3.application;appType=goal;archiType=oct;" vertex="1" parent="1"><mxGeometry x="694.0" y="370.0" width="120" height="60" as="geometry" /></mxCell><mxCell id="elem_m4" value="Maintain Service Reliability" style="html=1;outlineConnect=0;whiteSpace=wrap;fillColor=#CCCCFF;shape=mxgraph.archimate3.application;appType=goal;archiType=oct;" vertex="1" parent="1"><mxGeometry x="856.0" y="370.0" width="120" height="60" as="geometry" /></mxCell><mxCell id="elem_m5" value="Maintain Profitability" style="html=1;outlineConnect=0;whiteSpace=wrap;fillColor=#CCCCFF;shape=mxgraph.archimate3.application;appType=goal;archiType=oct;" vertex="1" parent="1"><mxGeometry x="1018.0" y="370.0" width="120" height="60" as="geometry" /></mxCell><mxCell id="elem_m6" value="Position as Leader in Sustainable Energy" style="html=1;outlineConnect=0;whiteSpace=wrap;fillColor=#CCCCFF;shape=mxgraph.archimate3.application;appType=outcome;archiType=oct;" vertex="1" parent="1"><mxGeometry x="694.0" y="118.0" width="120" height="60" as="geometry" /></mxCell><mxCell id="elem_m7" value="Invest in Renewable Energy Infrastructure" style="html=1;outlineConnect=0;whiteSpace=wrap;fillColor=#CCCCFF;shape=mxgraph.archimate3.application;appType=requirement;archiType=square;" vertex="1" parent="1"><mxGeometry x="451.0" y="622.0" width="120" height="60" as="geometry" /></mxCell><mxCell id="elem_m8" value="Update Power Grids" style="html=1;outlineConnect=0;whiteSpace=wrap;fillColor=#CCCCFF;shape=mxgraph.archimate3.application;appType=requirement;archiType=square;" vertex="1" parent="1"><mxGeometry x="775.0" y="622.0" width="120" height="60" as="geometry" /></mxCell><mxCell id="elem_m9" value="Implement AI-powered Predictive Analytics" style="html=1;outlineConnect=0;whiteSpace=wrap;fillColor=#CCCCFF;shape=mxgraph.archimate3.application;appType=requirement;archiType=square;" vertex="1" parent="1"><mxGeometry x="937.0" y="622.0" width="120" height="60" as="geometry" /></mxCell><mxCell id="elem_m10" value="Develop EV Charging Network" style="html=1;outlineConnect=0;whiteSpace=wrap;fillColor=#CCCCFF;shape=mxgraph.archimate3.application;appType=requirement;archiType=square;" vertex="1" parent="1"><mxGeometry x="127.0" y="622.0" width="120" height="60" as="geometry" /></mxCell><mxCell id="elem_m11" value="Reduce Greenhouse Gas Emissions" style="html=1;outlineConnect=0;whiteSpace=wrap;fillColor=#FFFFFF;shape=mxgraph.archimate3.rectangle;" vertex="1" parent="1"><mxGeometry x="613.0" y="622.0" width="120" height="60" as="geometry" /></mxCell><mxCell id="elem_m12" value="Increase Renewable Energy Percentage" style="html=1;outlineConnect=0;whiteSpace=wrap;fillColor=#FFFFFF;shape=mxgraph.archimate3.rectangle;" vertex="1" parent="1"><mxGeometry x="289.0" y="622.0" width="120" height="60" as="geometry" /></mxCell><mxCell id="elem_m13" value="Minimize Grid Downtime" style="html=1;outlineConnect=0;whiteSpace=wrap;fillColor=#FFFFFF;shape=mxgraph.archimate3.rectangle;" vertex="1" parent="1"><mxGeometry x="1099.0" y="622.0" width="120" height="60" as="geometry" /></mxCell><mxCell id="conn_elem_m1_elem_m6" style="html=1;shape=mxgraph.archimate3.relationship;archiType=influence;" edge="1" source="elem_m1" target="elem_m6" parent="1"><mxGeometry relative="1" as="geometry" /></mxCell><mxCell id="conn_elem_m2_elem_m6" style="html=1;shape=mxgraph.archimate3.relationship;archiType=influence;" edge="1" source="elem_m2" target="elem_m6" parent="1"><mxGeometry relative="1" as="geometry" /></mxCell><mxCell id="conn_elem_m3_elem_m6" style="html=1;shape=mxgraph.archimate3.relationship;archiType=influence;" edge="1" source="elem_m3" target="elem_m6" parent="1"><mxGeometry relative="1" as="geometry" /></mxCell><mxCell id="conn_elem_m4_elem_m6" style="html=1;shape=mxgraph.archimate3.relationship;archiType=influence;" edge="1" source="elem_m4" target="elem_m6" parent="1"><mxGeometry relative="1" as="geometry" /></mxCell><mxCell id="conn_elem_m5_elem_m6" style="html=1;shape=mxgraph.archimate3.relationship;archiType=influence;" edge="1" source="elem_m5" target="elem_m6" parent="1"><mxGeometry relative="1" as="geometry" /></mxCell><mxCell id="conn_elem_m7_elem_m1" style="html=1;shape=mxgraph.archimate3.relationship;archiType=association;" edge="1" source="elem_m7" target="elem_m1" parent="1"><mxGeometry relative="1" as="geometry" /></mxCell><mxCell id="conn_elem_m7_elem_m2" style="html=1;shape=mxgraph.archimate3.relationship;archiType=association;" edge="1" source="elem_m7" target="elem_m2" parent="1"><mxGeometry relative="1" as="geometry" /></mxCell><mxCell id="conn_elem_m8_elem_m4" style="html=1;shape=mxgraph.archimate3.relationship;archiType=association;" edge="1" source="elem_m8" target="elem_m4" parent="1"><mxGeometry relative="1" as="geometry" /></mxCell><mxCell id="conn_elem_m9_elem_m4" style="html=1;shape=mxgraph.archimate3.relationship;archiType=association;" edge="1" source="elem_m9" target="elem_m4" parent="1"><mxGeometry relative="1" as="geometry" /></mxCell><mxCell id="conn_elem_m10_elem_m2" style="html=1;shape=mxgraph.archimate3.relationship;archiType=association;" edge="1" source="elem_m10" target="elem_m2" parent="1"><mxGeometry relative="1" as="geometry" /></mxCell><mxCell id="conn_elem_m11_elem_m1" style="html=1;shape=mxgraph.archimate3.relationship;archiType=influence;" edge="1" source="elem_m11" target="elem_m1" parent="1"><mxGeometry relative="1" as="geometry" /></mxCell><mxCell id="conn_elem_m12_elem_m2" style="html=1;shape=mxgraph.archimate3.relationship;archiType=influence;" edge="1" source="elem_m12" target="elem_m2" parent="1"><mxGeometry relative="1" as="geometry" /></mxCell><mxCell id="conn_elem_m13_elem_m4" style="html=1;shape=mxgraph.archimate3.relationship;archiType=influence;" edge="1" source="elem_m13" target="elem_m4" parent="1"><mxGeometry relative="1" as="geometry" /></mxCell><mxCell id="label_Strategy" value="Strategy" style="text;html=1;align=center;verticalAlign=middle;resizable=0;points=[];" vertex="1" parent="1"><mxGeometry x="270.0" y="590.0" width="200" height="30" as="geometry" /></mxCell><mxCell id="elem_s1" value="Renewable Energy Infrastructure" style="html=1;outlineConnect=0;whiteSpace=wrap;fillColor=#FFFFFF;shape=mxgraph.archimate3.rectangle;" vertex="1" parent="1"><mxGeometry x="127.0" y="670.0" width="120" height="60" as="geometry" /></mxCell><mxCell id="elem_s2" value="Energy Storage and Demand Response" style="html=1;outlineConnect=0;whiteSpace=wrap;fillColor=#FFFFFF;shape=mxgraph.archimate3.rectangle;" vertex="1" parent="1"><mxGeometry x="289.0" y="670.0" width="120" height="60" as="geometry" /></mxCell><mxCell id="elem_s3" value="AI-powered Predictive Analytics" style="html=1;outlineConnect=0;whiteSpace=wrap;fillColor=#FFFFFF;shape=mxgraph.archimate3.rectangle;" vertex="1" parent="1"><mxGeometry x="451.0" y="670.0" width="120" height="60" as="geometry" /></mxCell><mxCell id="elem_s4" value="EV Charging Network" style="html=1;outlineConnect=0;whiteSpace=wrap;fillColor=#FFFFFF;shape=mxgraph.archimate3.rectangle;" vertex="1" parent="1"><mxGeometry x="613.0" y="670.0" width="120" height="60" as="geometry" /></mxCell><mxCell id="conn_elem_s1_elem_m7" style="html=1;shape=mxgraph.archimate3.relationship;archiType=assignment;" edge="1" source="elem_s1" target="elem_m7" parent="1"><mxGeometry relative="1" as="geometry" /></mxCell><mxCell id="conn_elem_s2_elem_m8" style="html=1;shape=mxgraph.archimate3.relationship;archiType=assignment;" edge="1" source="elem_s2" target="elem_m8" parent="1"><mxGeometry relative="1" as="geometry" /></mxCell><mxCell id="conn_elem_s3_elem_m9" style="html=1;shape=mxgraph.archimate3.relationship;archiType=assignment;" edge="1" source="elem_s3" target="elem_m9" parent="1"><mxGeometry relative="1" as="geometry" /></mxCell><mxCell id="conn_elem_s4_elem_m10" style="html=1;shape=mxgraph.archimate3.relationship;archiType=assignment;" edge="1" source="elem_s4" target="elem_m10" parent="1"><mxGeometry relative="1" as="geometry" /></mxCell><mxCell id="label_Business" value="Business" style="text;html=1;align=center;verticalAlign=middle;resizable=0;points=[];" vertex="1" parent="1"><mxGeometry x="473.0" y="890.0" width="200" height="30" as="geometry" /></mxCell><mxCell id="elem_b1" value="Green Energy Transition Project" style="html=1;outlineConnect=0;whiteSpace=wrap;fillColor=#ffff99;shape=mxgraph.archimate3.application;appType=proc;archiType=rounded;" vertex="1" parent="1"><mxGeometry x="370.0" y="970.0" width="120" height="60" as="geometry" /></mxCell><mxCell id="elem_b2" value="Regulatory Compliance" style="html=1;outlineConnect=0;whiteSpace=wrap;fillColor=#ffff99;shape=mxgraph.archimate3.application;appType=func;archiType=rounded;" vertex="1" parent="1"><mxGeometry x="654.0" y="1222.0" width="120" height="60" as="geometry" /></mxCell><mxCell id="elem_b3" value="Sustainability Management" style="html=1;outlineConnect=0;whiteSpace=wrap;fillColor=#ffff99;shape=mxgraph.archimate3.application;appType=func;archiType=rounded;" vertex="1" parent="1"><mxGeometry x="816.0" y="970.0" width="120" height="60" as="geometry" /></mxCell><mxCell id="elem_b4" value="Energy Supply Service" style="html=1;outlineConnect=0;whiteSpace=wrap;fillColor=#ffff99;shape=mxgraph.archimate3.application;appType=serv;archiType=rounded;" vertex="1" parent="1"><mxGeometry x="330.0" y="1222.0" width="120" height="60" as="geometry" /></mxCell><mxCell id="elem_b5" value="Project Manager" style="html=1;outlineConnect=0;whiteSpace=wrap;fillColor=#FFFFFF;shape=mxgraph.archimate3.rectangle;" vertex="1" parent="1"><mxGeometry x="492.0" y="1222.0" width="120" height="60" as="geometry" /></mxCell><mxCell id="elem_b6" value="Sustainability Officer" style="html=1;outlineConnect=0;whiteSpace=wrap;fillColor=#FFFFFF;shape=mxgraph.archimate3.rectangle;" vertex="1" parent="1"><mxGeometry x="816.0" y="1222.0" width="120" height="60" as="geometry" /></mxCell><mxCell id="conn_elem_b1_elem_s1" style="html=1;shape=mxgraph.archimate3.relationship;archiType=assignment;" edge="1" source="elem_b1" target="elem_s1" parent="1"><mxGeometry relative="1" as="geometry" /></mxCell><mxCell id="conn_elem_b1_elem_s2" style="html=1;shape=mxgraph.archimate3.relationship;archiType=assignment;" edge="1" source="elem_b1" target="elem_s2" parent="1"><mxGeometry relative="1" as="geometry" /></mxCell><mxCell id="conn_elem_b1_elem_s3" style="html=1;shape=mxgraph.archimate3.relationship;archiType=assignment;" edge="1" source="elem_b1" target="elem_s3" parent="1"><mxGeometry relative="1" as="geometry" /></mxCell><mxCell id="conn_elem_b1_elem_s4" style="html=1;shape=mxgraph.archimate3.relationship;archiType=assignment;" edge="1" source="elem_b1" target="elem_s4" parent="1"><mxGeometry relative="1" as="geometry" /></mxCell><mxCell id="conn_elem_b2_elem_m3" style="html=1;shape=mxgraph.archimate3.relationship;archiType=serving;" edge="1" source="elem_b2" target="elem_m3" parent="1"><mxGeometry relative="1" as="geometry" /></mxCell><mxCell id="conn_elem_b3_elem_m6" style="html=1;shape=mxgraph.archimate3.relationship;archiType=serving;" edge="1" source="elem_b3" target="elem_m6" parent="1"><mxGeometry relative="1" as="geometry" /></mxCell><mxCell id="conn_elem_b4_elem_b1" style="html=1;shape=mxgraph.archimate3.relationship;archiType=triggering;" edge="1" source="elem_b4" target="elem_b1" parent="1"><mxGeometry relative="1" as="geometry" /></mxCell><mxCell id="conn_elem_b5_elem_b1" style="html=1;shape=mxgraph.archimate3.relationship;archiType=assignment;" edge="1" source="elem_b5" target="elem_b1" parent="1"><mxGeometry relative="1" as="geometry" /></mxCell><mxCell id="conn_elem_b6_elem_b3" style="html=1;shape=mxgraph.archimate3.relationship;archiType=assignment;" edge="1" source="elem_b6" target="elem_b3" parent="1"><mxGeometry relative="1" as="geometry" /></mxCell><mxCell id="label_Application" value="Application" style="text;html=1;align=center;verticalAlign=middle;resizable=0;points=[];" vertex="1" parent="1"><mxGeometry x="108.0" y="1190.0" width="200" height="30" as="geometry" /></mxCell><mxCell id="elem_a1" value="AI Analytics Platform" style="html=1;outlineConnect=0;whiteSpace=wrap;fillColor=#99ffff;shape=mxgraph.archimate3.application;appType=comp;archiType=square;" vertex="1" parent="1"><mxGeometry x="208.0" y="1270.0" width="120" height="60" as="geometry" /></mxCell><mxCell id="elem_a2" value="Predictive Load Balancing" style="html=1;outlineConnect=0;whiteSpace=wrap;fillColor=#99ffff;shape=mxgraph.archimate3.application;appType=serv;archiType=rounded;" vertex="1" parent="1"><mxGeometry x="127.0" y="1522.0" width="120" height="60" as="geometry" /></mxCell><mxCell id="elem_a3" value="Resource Optimization" style="html=1;outlineConnect=0;whiteSpace=wrap;fillColor=#99ffff;shape=mxgraph.archimate3.application;appType=serv;archiType=rounded;" vertex="1" parent="1"><mxGeometry x="289.0" y="1522.0" width="120" height="60" as="geometry" /></mxCell><mxCell id="conn_elem_a1_elem_s3" style="html=1;shape=mxgraph.archimate3.relationship;archiType=assignment;" edge="1" source="elem_a1" target="elem_s3" parent="1"><mxGeometry relative="1" as="geometry" /></mxCell><mxCell id="conn_elem_a2_elem_a1" style="html=1;shape=mxgraph.archimate3.relationship;archiType=serving;" edge="1" source="elem_a2" target="elem_a1" parent="1"><mxGeometry relative="1" as="geometry" /></mxCell><mxCell id="conn_elem_a3_elem_a1" style="html=1;shape=mxgraph.archimate3.relationship;archiType=serving;" edge="1" source="elem_a3" target="elem_a1" parent="1"><mxGeometry relative="1" as="geometry" /></mxCell><mxCell id="label_Technology" value="Technology" style="text;html=1;align=center;verticalAlign=middle;resizable=0;points=[];" vertex="1" parent="1"><mxGeometry x="351.0" y="1490.0" width="200" height="30" as="geometry" /></mxCell><mxCell id="elem_t1" value="Solar Energy Farm" style="html=1;outlineConnect=0;whiteSpace=wrap;fillColor=#AFFFAF;shape=mxgraph.archimate3.application;appType=node;archiType=square;" vertex="1" parent="1"><mxGeometry x="127.0" y="1822.0" width="120" height="60" as="geometry" /></mxCell><mxCell id="elem_t2" value="Wind Energy Farm" style="html=1;outlineConnect=0;whiteSpace=wrap;fillColor=#AFFFAF;shape=mxgraph.archimate3.application;appType=node;archiType=square;" vertex="1" parent="1"><mxGeometry x="289.0" y="1822.0" width="120" height="60" as="geometry" /></mxCell><mxCell id="elem_t3" value="Power Grid" style="html=1;outlineConnect=0;whiteSpace=wrap;fillColor=#AFFFAF;shape=mxgraph.archimate3.application;appType=node;archiType=square;" vertex="1" parent="1"><mxGeometry x="532.0" y="1570.0" width="120" height="60" as="geometry" /></mxCell><mxCell id="elem_t4" value="EV Charging Station" style="html=1;outlineConnect=0;whiteSpace=wrap;fillColor=#AFFFAF;shape=mxgraph.archimate3.application;appType=node;archiType=square;" vertex="1" parent="1"><mxGeometry x="775.0" y="1822.0" width="120" height="60" as="geometry" /></mxCell><mxCell id="elem_t5" value="Energy Storage" style="html=1;outlineConnect=0;whiteSpace=wrap;fillColor=#AFFFAF;shape=mxgraph.archimate3.application;appType=serv;archiType=rounded;" vertex="1" parent="1"><mxGeometry x="451.0" y="1822.0" width="120" height="60" as="geometry" /></mxCell><mxCell id="elem_t6" value="Demand Response" style="html=1;outlineConnect=0;whiteSpace=wrap;fillColor=#AFFFAF;shape=mxgraph.archimate3.application;appType=serv;archiType=rounded;" vertex="1" parent="1"><mxGeometry x="613.0" y="1822.0" width="120" height="60" as="geometry" /></mxCell><mxCell id="conn_elem_t1_elem_s1" style="html=1;shape=mxgraph.archimate3.relationship;archiType=assignment;" edge="1" source="elem_t1" target="elem_s1" parent="1"><mxGeometry relative="1" as="geometry" /></mxCell><mxCell id="conn_elem_t2_elem_s1" style="html=1;shape=mxgraph.archimate3.relationship;archiType=assignment;" edge="1" source="elem_t2" target="elem_s1" parent="1"><mxGeometry relative="1" as="geometry" /></mxCell><mxCell id="conn_elem_t3_elem_s2" style="html=1;shape=mxgraph.archimate3.relationship;archiType=assignment;" edge="1" source="elem_t3" target="elem_s2" parent="1"><mxGeometry relative="1" as="geometry" /></mxCell><mxCell id="conn_elem_t4_elem_s4" style="html=1;shape=mxgraph.archimate3.relationship;archiType=assignment;" edge="1" source="elem_t4" target="elem_s4" parent="1"><mxGeometry relative="1" as="geometry" /></mxCell><mxCell id="conn_elem_t5_elem_t3" style="html=1;shape=mxgraph.archimate3.relationship;archiType=serving;" edge="1" source="elem_t5" target="elem_t3" parent="1"><mxGeometry relative="1" as="geometry" /></mxCell><mxCell id="conn_elem_t6_elem_t3" style="html=1;shape=mxgraph.archimate3.relationship;archiType=serving;" edge="1" source="elem_t6" target="elem_t3" parent="1"><mxGeometry relative="1" as="geometry" /></mxCell></root></mxGraphModel></diagram></mxfile>